<?xml version="1.0" encoding="UTF-8" standalone="no"?>
<svg width="400" height="300" viewBox="0 0 400 300" xmlns="http://www.w3.org/2000/svg">
  <!-- Background -->
  <rect width="400" height="300" fill="#f8f9fa"/>
  
  <!-- Background Card -->
  <rect x="70" y="50" width="260" height="200" rx="15" fill="#ffffff" stroke="#e0e0e0" stroke-width="2"/>
  
  <!-- Heart -->
  <path d="M200,105 
           C200,85 180,75 165,75 
           C135,75 135,115 165,135 
           C180,145 200,160 200,160 
           C200,160 220,145 235,135 
           C265,115 265,75 235,75 
           C220,75 200,85 200,105 Z" 
        fill="#e74c3c" stroke="#c0392b" stroke-width="2"/>
  
  <!-- Hands -->
  <path d="M140,190 C120,180 110,200 130,210 C150,220 170,210 170,210" fill="none" stroke="#f39c12" stroke-width="5" stroke-linecap="round"/>
  <path d="M260,190 C280,180 290,200 270,210 C250,220 230,210 230,210" fill="none" stroke="#f39c12" stroke-width="5" stroke-linecap="round"/>
  
  <!-- Small Hearts -->
  <circle cx="150" cy="180" r="8" fill="#e74c3c"/>
  <circle cx="250" cy="180" r="8" fill="#e74c3c"/>
  
  <!-- Text Box -->
  <rect x="100" y="220" width="200" height="20" rx="5" fill="#3498db"/>
  <text x="200" y="235" font-family="Arial, sans-serif" font-size="12" font-weight="bold" fill="white" text-anchor="middle">CHARITY FOUNDATION</text>
</svg>