<?xml version="1.0" encoding="UTF-8" standalone="no"?>
<svg width="800" height="450" viewBox="0 0 800 450" xmlns="http://www.w3.org/2000/svg">
  <rect width="800" height="450" fill="#f5f5f5"/>
  <rect x="50" y="50" width="700" height="350" rx="10" fill="#ffffff" stroke="#e0e0e0" stroke-width="2"/>
  
  <!-- Admin Panel Header -->
  <rect x="50" y="50" width="700" height="60" rx="10" fill="#212529"/>
  <text x="100" y="85" font-family="Arial, sans-serif" font-size="22" font-weight="bold" fill="#ffffff">Maroset Admin Dashboard</text>
  
  <!-- Navigation -->
  <text x="500" y="85" font-family="Arial, sans-serif" font-size="16" fill="#ffffff">Dashboard</text>
  <text x="600" y="85" font-family="Arial, sans-serif" font-size="16" fill="#ffffff">Companies</text>
  <text x="690" y="85" font-family="Arial, sans-serif" font-size="16" fill="#ffffff">Jobs</text>
  
  <!-- Dashboard Stats -->
  <rect x="80" y="130" width="200" height="100" rx="5" fill="#0d6efd" fillOpacity="0.1" stroke="#0d6efd" stroke-width="1"/>
  <text x="180" y="170" font-family="Arial, sans-serif" font-size="30" font-weight="bold" fill="#0d6efd" text-anchor="middle">1,243</text>
  <text x="180" y="200" font-family="Arial, sans-serif" font-size="16" fill="#666666" text-anchor="middle">Total Jobs</text>
  
  <rect x="300" y="130" width="200" height="100" rx="5" fill="#198754" fillOpacity="0.1" stroke="#198754" stroke-width="1"/>
  <text x="400" y="170" font-family="Arial, sans-serif" font-size="30" font-weight="bold" fill="#198754" text-anchor="middle">287</text>
  <text x="400" y="200" font-family="Arial, sans-serif" font-size="16" fill="#666666" text-anchor="middle">Active Companies</text>
  
  <rect x="520" y="130" width="200" height="100" rx="5" fill="#dc3545" fillOpacity="0.1" stroke="#dc3545" stroke-width="1"/>
  <text x="620" y="170" font-family="Arial, sans-serif" font-size="30" font-weight="bold" fill="#dc3545" text-anchor="middle">5,872</text>
  <text x="620" y="200" font-family="Arial, sans-serif" font-size="16" fill="#666666" text-anchor="middle">Total Applications</text>
  
  <!-- Chart Area -->
  <rect x="80" y="250" width="640" height="120" rx="5" fill="#f9f9f9" stroke="#e0e0e0" stroke-width="1"/>
  <text x="100" y="280" font-family="Arial, sans-serif" font-size="18" font-weight="bold" fill="#333333">Job Applications (Last 30 Days)</text>
  
  <!-- Line Graph -->
  <polyline points="100,330 150,310 200,320 250,300 300,290 350,305 400,280 450,290 500,270 550,260 600,280 650,250 700,240" fill="none" stroke="#0d6efd" stroke-width="2"/>
  
  <!-- Dots on the line -->
  <circle cx="100" cy="330" r="4" fill="#0d6efd"/>
  <circle cx="150" cy="310" r="4" fill="#0d6efd"/>
  <circle cx="200" cy="320" r="4" fill="#0d6efd"/>
  <circle cx="250" cy="300" r="4" fill="#0d6efd"/>
  <circle cx="300" cy="290" r="4" fill="#0d6efd"/>
  <circle cx="350" cy="305" r="4" fill="#0d6efd"/>
  <circle cx="400" cy="280" r="4" fill="#0d6efd"/>
  <circle cx="450" cy="290" r="4" fill="#0d6efd"/>
  <circle cx="500" cy="270" r="4" fill="#0d6efd"/>
  <circle cx="550" cy="260" r="4" fill="#0d6efd"/>
  <circle cx="600" cy="280" r="4" fill="#0d6efd"/>
  <circle cx="650" cy="250" r="4" fill="#0d6efd"/>
  <circle cx="700" cy="240" r="4" fill="#0d6efd"/>
</svg>