<?xml version="1.0" encoding="UTF-8" standalone="no"?>
<svg width="800" height="450" viewBox="0 0 800 450" xmlns="http://www.w3.org/2000/svg">
  <rect width="800" height="450" fill="#f5f5f5"/>
  <rect x="50" y="50" width="700" height="350" rx="10" fill="#ffffff" stroke="#e0e0e0" stroke-width="2"/>
  
  <!-- Header -->
  <rect x="50" y="50" width="700" height="60" rx="10" fill="#f8f9fa"/>
  <text x="100" y="85" font-family="Arial, sans-serif" font-size="22" font-weight="bold" fill="#333333">Nur Quran Center</text>
  
  <!-- Navigation -->
  <text x="500" y="85" font-family="Arial, sans-serif" font-size="16" fill="#333333">Home</text>
  <text x="550" y="85" font-family="Arial, sans-serif" font-size="16" fill="#007bff">About</text>
  <text x="600" y="85" font-family="Arial, sans-serif" font-size="16" fill="#333333">Classes</text>
  <text x="670" y="85" font-family="Arial, sans-serif" font-size="16" fill="#333333">Contact</text>
  
  <!-- About Section -->
  <text x="400" y="150" font-family="Arial, sans-serif" font-size="24" font-weight="bold" fill="#333333" text-anchor="middle">About Us</text>
  
  <!-- Content -->
  <rect x="100" y="170" width="600" height="200" rx="5" fill="#f9f9f9"/>
  
  <!-- Teacher Image -->
  <circle cx="180" cy="230" r="60" fill="#e9ecef"/>
  <circle cx="180" cy="205" r="20" fill="#adb5bd"/>
  <path d="M180,225 
           L180,270 
           C160,270 150,260 140,245
           C145,230 165,225 180,225 Z" fill="#adb5bd"/>
  <path d="M180,225 
           L180,270 
           C200,270 210,260 220,245
           C215,230 195,225 180,225 Z" fill="#adb5bd"/>
  
  <!-- Text Content -->
  <text x="400" y="190" font-family="Arial, sans-serif" font-size="16" fill="#666666" text-anchor="middle">Nur Quran Center was established in 2018 with a mission to</text>
  <text x="400" y="215" font-family="Arial, sans-serif" font-size="16" fill="#666666" text-anchor="middle">make Quranic education accessible to everyone around the world.</text>
  
  <text x="450" y="250" font-family="Arial, sans-serif" font-size="16" fill="#666666">• Experienced and certified Quran teachers</text>
  <text x="450" y="280" font-family="Arial, sans-serif" font-size="16" fill="#666666">• Flexible schedule to suit your time zone</text>
  <text x="450" y="310" font-family="Arial, sans-serif" font-size="16" fill="#666666">• Personalized learning approach for each student</text>
  
  <!-- Footer -->
  <rect x="50" y="350" width="700" height="50" rx="5" fill="#f8f9fa"/>
  <text x="400" y="380" font-family="Arial, sans-serif" font-size="14" fill="#666666" text-anchor="middle">© 2025 Nur Quran Center. All rights reserved.</text>
</svg>